<svg width="40" height="32" viewBox="0 0 40 32" fill="none" xmlns="http://www.w3.org/2000/svg">
<g filter="url(#filter0_d_12_1501)">
<rect x="4.56024" y="9.20172" width="4.80098" height="13.6028" rx="2.40049" fill="#0E1821" stroke="#0E1821" stroke-width="0.480098"/>
<mask id="path-2-inside-1_12_1501" fill="white">
<path fill-rule="evenodd" clip-rule="evenodd" d="M9.60131 16.6432H7.84102C6.95718 16.6432 6.24069 15.9267 6.24069 15.0429V9.06105C6.4696 8.99631 6.71114 8.96167 6.96078 8.96167C8.4191 8.96167 9.60131 10.1439 9.60131 11.6022V16.6432Z"/>
</mask>
<path fill-rule="evenodd" clip-rule="evenodd" d="M9.60131 16.6432H7.84102C6.95718 16.6432 6.24069 15.9267 6.24069 15.0429V9.06105C6.4696 8.99631 6.71114 8.96167 6.96078 8.96167C8.4191 8.96167 9.60131 10.1439 9.60131 11.6022V16.6432Z" fill="white"/>
<path d="M9.60131 16.6432V17.1233H10.0814V16.6432H9.60131ZM6.24069 9.06105L6.11004 8.59907L5.76059 8.6979V9.06105H6.24069ZM9.60131 16.1631H7.84102V17.1233H9.60131V16.1631ZM7.84102 16.1631C7.22233 16.1631 6.72079 15.6616 6.72079 15.0429H5.76059C5.76059 16.1919 6.69203 17.1233 7.84102 17.1233V16.1631ZM6.72079 15.0429V9.06105H5.76059V15.0429H6.72079ZM6.37134 9.52303C6.55816 9.47019 6.75575 9.44177 6.96078 9.44177V8.48157C6.66653 8.48157 6.38104 8.52243 6.11004 8.59907L6.37134 9.52303ZM6.96078 9.44177C8.15395 9.44177 9.12122 10.409 9.12122 11.6022H10.0814C10.0814 9.87873 8.68426 8.48157 6.96078 8.48157V9.44177ZM9.12122 11.6022V16.6432H10.0814V11.6022H9.12122Z" fill="#0E1821" mask="url(#path-2-inside-1_12_1501)"/>
<rect x="30.4854" y="9.20172" width="4.80098" height="13.6028" rx="2.40049" fill="#0E1821" stroke="#0E1821" stroke-width="0.480098"/>
<path d="M9.36111 13.6825H19.0431C19.5292 13.6825 19.9233 14.0766 19.9233 14.5627V17.2833C19.9233 18.1229 19.2426 18.8036 18.403 18.8036H9.36111V13.6825Z" fill="#4878A6" stroke="#0E1821" stroke-width="0.480098"/>
<mask id="path-6-inside-2_12_1501" fill="white">
<path fill-rule="evenodd" clip-rule="evenodd" d="M30.2453 16.6431H32.0056C32.8894 16.6431 33.6059 15.9266 33.6059 15.0427V9.06084C33.377 8.99611 33.1355 8.96147 32.8858 8.96147C31.4275 8.96147 30.2453 10.1437 30.2453 11.602V16.6431Z"/>
</mask>
<path fill-rule="evenodd" clip-rule="evenodd" d="M30.2453 16.6431H32.0056C32.8894 16.6431 33.6059 15.9266 33.6059 15.0427V9.06084C33.377 8.99611 33.1355 8.96147 32.8858 8.96147C31.4275 8.96147 30.2453 10.1437 30.2453 11.602V16.6431Z" fill="white"/>
<path d="M30.2453 16.6431V17.1232H29.7652V16.6431H30.2453ZM33.6059 9.06084L33.7365 8.59886L34.086 8.69769V9.06084H33.6059ZM30.2453 16.163H32.0056V17.1232H30.2453V16.163ZM32.0056 16.163C32.6243 16.163 33.1258 15.6614 33.1258 15.0427H34.086C34.086 16.1917 33.1546 17.1232 32.0056 17.1232V16.163ZM33.1258 15.0427V9.06084H34.086V15.0427H33.1258ZM33.4752 9.52282C33.2884 9.46999 33.0909 9.44157 32.8858 9.44157V8.48137C33.1801 8.48137 33.4656 8.52223 33.7365 8.59886L33.4752 9.52282ZM32.8858 9.44157C31.6927 9.44157 30.7254 10.4088 30.7254 11.602H29.7652C29.7652 9.87853 31.1624 8.48137 32.8858 8.48137V9.44157ZM30.7254 11.602V16.6431H29.7652V11.602H30.7254Z" fill="#0E1821" mask="url(#path-6-inside-2_12_1501)"/>
<path d="M30.4854 13.6825H20.8034C20.3173 13.6825 19.9233 14.0766 19.9233 14.5627V17.2833C19.9233 18.1229 20.6039 18.8036 21.4436 18.8036H30.4854V13.6825Z" fill="#4878A6" stroke="#0E1821" stroke-width="0.480098"/>
<line x1="9.6008" y1="16.4032" x2="30.245" y2="16.4032" stroke="#0E1821" stroke-width="0.480098"/>
<rect x="16.3225" y="17.1232" width="0.960195" height="3.52072" rx="0.480098" transform="rotate(90 16.3225 17.1232)" fill="white"/>
<rect x="27.0444" y="17.1232" width="0.960195" height="3.52072" rx="0.480098" transform="rotate(90 27.0444 17.1232)" fill="white"/>
<line x1="10.9614" y1="14.9628" x2="18.1629" y2="14.9628" stroke="#0E1821" stroke-width="0.480098" stroke-linecap="round"/>
<line x1="21.6837" y1="14.9628" x2="28.8851" y2="14.9628" stroke="#0E1821" stroke-width="0.480098" stroke-linecap="round"/>
</g>
<defs>
<filter id="filter0_d_12_1501" x="0" y="-0.000213623" width="40.0004" height="40.0004" filterUnits="userSpaceOnUse" color-interpolation-filters="sRGB">
<feFlood flood-opacity="0" result="BackgroundImageFix"/>
<feColorMatrix in="SourceAlpha" type="matrix" values="0 0 0 0 0 0 0 0 0 0 0 0 0 0 0 0 0 0 127 0" result="hardAlpha"/>
<feOffset dy="4"/>
<feGaussianBlur stdDeviation="2"/>
<feComposite in2="hardAlpha" operator="out"/>
<feColorMatrix type="matrix" values="0 0 0 0 0 0 0 0 0 0 0 0 0 0 0 0 0 0 0.25 0"/>
<feBlend mode="normal" in2="BackgroundImageFix" result="effect1_dropShadow_12_1501"/>
<feBlend mode="normal" in="SourceGraphic" in2="effect1_dropShadow_12_1501" result="shape"/>
</filter>
</defs>
</svg>
