<svg width="36" height="40" viewBox="0 0 36 40" fill="none" xmlns="http://www.w3.org/2000/svg">
<g clip-path="url(#clip0_18_560)" filter="url(#filter0_d_18_560)">
<rect x="17.2854" y="2.71721" width="1.50071" height="17.4971" fill="#4878A6" stroke="#070C11" stroke-width="0.463768"/>
<rect x="4.6566" y="19.8369" width="4.16678" height="11.8844" rx="2.08339" fill="#070C11" stroke="#070C11" stroke-width="0.463768"/>
<mask id="path-3-inside-1_18_560" fill="white">
<path fill-rule="evenodd" clip-rule="evenodd" d="M9.05525 26.3395H7.65438C6.80061 26.3395 6.10849 25.6474 6.10849 24.7936V19.6914C6.30923 19.6346 6.52105 19.6042 6.73997 19.6042C8.01866 19.6042 9.05525 20.6408 9.05525 21.9195V26.3395Z"/>
</mask>
<path fill-rule="evenodd" clip-rule="evenodd" d="M9.05525 26.3395H7.65438C6.80061 26.3395 6.10849 25.6474 6.10849 24.7936V19.6914C6.30923 19.6346 6.52105 19.6042 6.73997 19.6042C8.01866 19.6042 9.05525 20.6408 9.05525 21.9195V26.3395Z" fill="white"/>
<path d="M9.05525 26.3395V26.8033H9.51901V26.3395H9.05525ZM6.10849 19.6914L5.98226 19.2451L5.64472 19.3406V19.6914H6.10849ZM9.05525 25.8758H7.65438V26.8033H9.05525V25.8758ZM7.65438 25.8758C7.05674 25.8758 6.57226 25.3913 6.57226 24.7936H5.64472C5.64472 25.9035 6.54448 26.8033 7.65438 26.8033V25.8758ZM6.57226 24.7936V19.6914H5.64472V24.7936H6.57226ZM6.23472 20.1376C6.39479 20.0923 6.56415 20.068 6.73997 20.068V19.1404C6.47796 19.1404 6.22367 19.1768 5.98226 19.2451L6.23472 20.1376ZM6.73997 20.068C7.76253 20.068 8.59148 20.8969 8.59148 21.9195H9.51901C9.51901 20.3846 8.2748 19.1404 6.73997 19.1404V20.068ZM8.59148 21.9195V26.3395H9.51901V21.9195H8.59148Z" fill="#070C11" mask="url(#path-3-inside-1_18_560)"/>
<rect x="27.3883" y="19.8361" width="4.16678" height="11.8844" rx="2.08339" fill="#070C11" stroke="#070C11" stroke-width="0.463768"/>
<mask id="path-6-inside-2_18_560" fill="white">
<path fill-rule="evenodd" clip-rule="evenodd" d="M27.1562 26.3395H28.5571C29.4108 26.3395 30.103 25.6474 30.103 24.7936V19.6913C29.9022 19.6345 29.6904 19.6042 29.4715 19.6042C28.1928 19.6042 27.1562 20.6407 27.1562 21.9194V26.3395Z"/>
</mask>
<path fill-rule="evenodd" clip-rule="evenodd" d="M27.1562 26.3395H28.5571C29.4108 26.3395 30.103 25.6474 30.103 24.7936V19.6913C29.9022 19.6345 29.6904 19.6042 29.4715 19.6042C28.1928 19.6042 27.1562 20.6407 27.1562 21.9194V26.3395Z" fill="white"/>
<path d="M27.1562 26.3395V26.8033H26.6925V26.3395H27.1562ZM30.103 19.6913L30.2292 19.245L30.5667 19.3405V19.6913H30.103ZM27.1562 25.8757H28.5571V26.8033H27.1562V25.8757ZM28.5571 25.8757C29.1547 25.8757 29.6392 25.3912 29.6392 24.7936H30.5667C30.5667 25.9035 29.667 26.8033 28.5571 26.8033V25.8757ZM29.6392 24.7936V19.6913H30.5667V24.7936H29.6392ZM29.9767 20.1376C29.8167 20.0923 29.6473 20.0679 29.4715 20.0679V19.1404C29.7335 19.1404 29.9878 19.1768 30.2292 19.245L29.9767 20.1376ZM29.4715 20.0679C28.449 20.0679 27.62 20.8969 27.62 21.9194H26.6925C26.6925 20.3846 27.9367 19.1404 29.4715 19.1404V20.0679ZM27.62 21.9194V26.3395H26.6925V21.9194H27.62Z" fill="#070C11" mask="url(#path-6-inside-2_18_560)"/>
<line x1="8.63434" y1="28.2126" x2="27.2968" y2="28.2126" stroke="#070C11" stroke-width="0.463768"/>
<mask id="path-9-inside-3_18_560" fill="white">
<path fill-rule="evenodd" clip-rule="evenodd" d="M18.0357 19.7446C16.8732 19.7446 15.9309 20.6869 15.9309 21.8494V23.5333H8.63431V26.3397H27.5774V23.5333H20.1405V21.8494C20.1405 20.6869 19.1981 19.7446 18.0357 19.7446Z"/>
</mask>
<path fill-rule="evenodd" clip-rule="evenodd" d="M18.0357 19.7446C16.8732 19.7446 15.9309 20.6869 15.9309 21.8494V23.5333H8.63431V26.3397H27.5774V23.5333H20.1405V21.8494C20.1405 20.6869 19.1981 19.7446 18.0357 19.7446Z" fill="#2A5275"/>
<path d="M15.9309 23.5333V23.997H16.3946V23.5333H15.9309ZM8.63431 23.5333V23.0695H8.17054V23.5333H8.63431ZM8.63431 26.3397H8.17054V26.8034H8.63431V26.3397ZM27.5774 26.3397V26.8034H28.0412V26.3397H27.5774ZM27.5774 23.5333H28.0412V23.0695H27.5774V23.5333ZM20.1405 23.5333H19.6767V23.997H20.1405V23.5333ZM16.3946 21.8494C16.3946 20.9431 17.1294 20.2084 18.0357 20.2084V19.2808C16.6171 19.2808 15.4671 20.4308 15.4671 21.8494H16.3946ZM16.3946 23.5333V21.8494H15.4671V23.5333H16.3946ZM8.63431 23.997H15.9309V23.0695H8.63431V23.997ZM9.09808 26.3397V23.5333H8.17054V26.3397H9.09808ZM27.5774 25.8759H8.63431V26.8034H27.5774V25.8759ZM27.1137 23.5333V26.3397H28.0412V23.5333H27.1137ZM20.1405 23.997H27.5774V23.0695H20.1405V23.997ZM19.6767 21.8494V23.5333H20.6042V21.8494H19.6767ZM18.0357 20.2084C18.942 20.2084 19.6767 20.9431 19.6767 21.8494H20.6042C20.6042 20.4308 19.4542 19.2808 18.0357 19.2808V20.2084Z" fill="#070C11" mask="url(#path-9-inside-3_18_560)"/>
<rect x="11.1114" y="0.893108" width="13.8488" height="1.07975" rx="0.539873" fill="#4878A6" stroke="#070C11" stroke-width="0.463768"/>
<rect x="15.4612" y="0.191448" width="5.14901" height="2.48294" rx="1.24147" fill="#F15152" stroke="#070C11" stroke-width="0.463768"/>
<circle cx="17.8954" cy="11.3255" r="1.73259" fill="#F15152" stroke="#070C11" stroke-width="0.463768"/>
<rect x="8.83052" y="26.0483" width="18.5507" height="2.16425" fill="white" stroke="#070C11" stroke-width="0.463768"/>
</g>
<defs>
<filter id="filter0_d_18_560" x="-2" y="0" width="40" height="40" filterUnits="userSpaceOnUse" color-interpolation-filters="sRGB">
<feFlood flood-opacity="0" result="BackgroundImageFix"/>
<feColorMatrix in="SourceAlpha" type="matrix" values="0 0 0 0 0 0 0 0 0 0 0 0 0 0 0 0 0 0 127 0" result="hardAlpha"/>
<feOffset dy="4"/>
<feGaussianBlur stdDeviation="2"/>
<feComposite in2="hardAlpha" operator="out"/>
<feColorMatrix type="matrix" values="0 0 0 0 0 0 0 0 0 0 0 0 0 0 0 0 0 0 0.25 0"/>
<feBlend mode="normal" in2="BackgroundImageFix" result="effect1_dropShadow_18_560"/>
<feBlend mode="normal" in="SourceGraphic" in2="effect1_dropShadow_18_560" result="shape"/>
</filter>
<clipPath id="clip0_18_560">
<rect width="32" height="32" fill="white" transform="translate(2)"/>
</clipPath>
</defs>
</svg>
