<svg width="147" height="127" viewBox="0 0 147 127" fill="none" xmlns="http://www.w3.org/2000/svg">
<path d="M40.1793 12.9678C47.0022 12.9678 52.3859 14.031 56.3304 16.1575C60.3815 18.284 63.2599 21.7395 64.9656 26.524C66.7779 31.2023 67.6841 37.6349 67.6841 45.8218C67.6841 53.9024 66.7779 60.335 64.9656 65.1195C63.2599 69.9041 60.3815 73.3596 56.3304 75.4861C52.3859 77.5063 47.0022 78.5163 40.1793 78.5163C33.4631 78.5163 28.0794 77.5063 24.0283 75.4861C20.0838 73.3596 17.2587 69.9041 15.553 65.1195C13.8473 60.335 12.9944 53.9024 12.9944 45.8218C12.9944 37.6349 13.8473 31.2023 15.553 26.524C17.2587 21.7395 20.0838 18.284 24.0283 16.1575C28.0794 14.031 33.4631 12.9678 40.1793 12.9678ZM120.295 15.2006L54.2515 125.246H39.3798L105.423 15.2006H120.295ZM40.1793 26.0456C37.6208 26.0456 35.5952 26.5772 34.1027 27.6404C32.7168 28.7037 31.7574 30.6707 31.2243 33.5414C30.6913 36.3058 30.4248 40.3993 30.4248 45.8218C30.4248 51.2443 30.6913 55.3909 31.2243 58.2617C31.7574 61.1324 32.7168 63.0994 34.1027 64.1626C35.5952 65.1195 37.6208 65.598 40.1793 65.598C42.8445 65.598 44.8701 65.1195 46.256 64.1626C47.7485 63.0994 48.7612 61.1324 49.2943 58.2617C49.9339 55.3909 50.2537 51.2443 50.2537 45.8218C50.2537 40.3993 49.9339 36.3058 49.2943 33.5414C48.7612 30.6707 47.7485 28.7037 46.256 27.6404C44.8701 26.5772 42.8445 26.0456 40.1793 26.0456ZM119.655 61.6109C126.371 61.6109 131.702 62.6741 135.646 64.8006C139.697 66.8207 142.576 70.2231 144.282 75.0076C146.094 79.7922 147 86.2248 147 94.3054C147 102.386 146.094 108.872 144.282 113.763C142.576 118.547 139.697 121.95 135.646 123.97C131.702 125.99 126.371 127 119.655 127C112.832 127 107.449 125.99 103.504 123.97C99.5597 121.95 96.6813 118.547 94.869 113.763C93.1632 108.872 92.3104 102.386 92.3104 94.3054C92.3104 86.2248 93.1632 79.7922 94.869 75.0076C96.6813 70.2231 99.5597 66.8207 103.504 64.8006C107.449 62.6741 112.832 61.6109 119.655 61.6109ZM119.495 74.5292C116.937 74.5292 114.911 75.0608 113.419 76.124C112.033 77.1873 111.073 79.1543 110.54 82.025C110.007 84.7894 109.741 88.8829 109.741 94.3054C109.741 99.7279 110.007 103.875 110.54 106.745C111.073 109.616 112.033 111.583 113.419 112.646C114.911 113.603 116.937 114.082 119.495 114.082C122.16 114.082 124.186 113.603 125.572 112.646C127.064 111.583 128.077 109.616 128.61 106.745C129.25 103.875 129.57 99.7279 129.57 94.3054C129.57 88.8829 129.25 84.7894 128.61 82.025C128.077 79.1543 127.064 77.1873 125.572 76.124C124.186 75.0608 122.16 74.5292 119.495 74.5292Z" fill="#F15152"/>
<mask id="path-2-outside-1_21_981" maskUnits="userSpaceOnUse" x="0" y="0" width="141" height="121" fill="black">
<rect fill="white" width="141" height="121"/>
<path d="M30.1849 3C37.0078 3 42.3915 4.06324 46.3359 6.18972C50.387 8.31619 53.2654 11.7717 54.9711 16.5563C56.7835 21.2345 57.6896 27.6671 57.6896 35.854C57.6896 43.9346 56.7835 50.3672 54.9711 55.1518C53.2654 59.9363 50.387 63.3919 46.3359 65.5183C42.3915 67.5385 37.0078 68.5486 30.1849 68.5486C23.4686 68.5486 18.085 67.5385 14.0339 65.5183C10.0894 63.3919 7.2643 59.9363 5.55858 55.1518C3.85286 50.3672 3 43.9346 3 35.854C3 27.6671 3.85286 21.2345 5.55858 16.5563C7.2643 11.7717 10.0894 8.31619 14.0339 6.18972C18.085 4.06324 23.4686 3 30.1849 3ZM110.3 5.2328L44.2571 115.278H29.3853L95.4287 5.2328H110.3ZM30.1849 16.0778C27.6263 16.0778 25.6008 16.6094 24.1083 17.6727C22.7224 18.7359 21.7629 20.7029 21.2299 23.5736C20.6968 26.3381 20.4303 30.4315 20.4303 35.854C20.4303 41.2765 20.6968 45.4232 21.2299 48.2939C21.7629 51.1646 22.7224 53.1316 24.1083 54.1949C25.6008 55.1518 27.6263 55.6302 30.1849 55.6302C32.8501 55.6302 34.8756 55.1518 36.2615 54.1949C37.754 53.1316 38.7668 51.1646 39.2998 48.2939C39.9395 45.4232 40.2593 41.2765 40.2593 35.854C40.2593 30.4315 39.9395 26.3381 39.2998 23.5736C38.7668 20.7029 37.754 18.7359 36.2615 17.6727C34.8756 16.6094 32.8501 16.0778 30.1849 16.0778ZM109.661 51.6431C116.377 51.6431 121.707 52.7063 125.652 54.8328C129.703 56.853 132.581 60.2553 134.287 65.0399C136.099 69.8244 137.006 76.257 137.006 84.3376C137.006 92.4182 136.099 98.904 134.287 103.795C132.581 108.579 129.703 111.982 125.652 114.002C121.707 116.022 116.377 117.032 109.661 117.032C102.838 117.032 97.4542 116.022 93.5097 114.002C89.5652 111.982 86.6868 108.579 84.8745 103.795C83.1688 98.904 82.3159 92.4182 82.3159 84.3376C82.3159 76.257 83.1688 69.8244 84.8745 65.0399C86.6868 60.2553 89.5652 56.853 93.5097 54.8328C97.4542 52.7063 102.838 51.6431 109.661 51.6431ZM109.501 64.5614C106.942 64.5614 104.917 65.093 103.424 66.1563C102.038 67.2195 101.079 69.1865 100.546 72.0572C100.013 74.8217 99.7463 78.9151 99.7463 84.3376C99.7463 89.7601 100.013 93.9068 100.546 96.7775C101.079 99.6482 102.038 101.615 103.424 102.678C104.917 103.635 106.942 104.114 109.501 104.114C112.166 104.114 114.192 103.635 115.577 102.678C117.07 101.615 118.083 99.6482 118.616 96.7775C119.255 93.9068 119.575 89.7601 119.575 84.3376C119.575 78.9151 119.255 74.8217 118.616 72.0572C118.083 69.1865 117.07 67.2195 115.577 66.1563C114.192 65.093 112.166 64.5614 109.501 64.5614Z"/>
</mask>
<path d="M46.3359 6.18972L44.9123 8.83042L44.9269 8.83829L44.9416 8.846L46.3359 6.18972ZM54.9711 16.5563L52.1453 17.5637L52.159 17.602L52.1737 17.64L54.9711 16.5563ZM54.9711 55.1518L52.1656 54.0891L52.1552 54.1166L52.1453 54.1444L54.9711 55.1518ZM46.3359 65.5183L47.7035 68.1885L47.7169 68.1816L47.7303 68.1746L46.3359 65.5183ZM14.0339 65.5183L12.6103 68.159L12.6523 68.1817L12.6951 68.203L14.0339 65.5183ZM5.55858 55.1518L2.73278 56.1592H2.73278L5.55858 55.1518ZM5.55858 16.5563L8.37708 17.5839L8.38076 17.5738L8.38438 17.5637L5.55858 16.5563ZM14.0339 6.18972L12.6395 3.53343L12.6249 3.54114L12.6103 3.54901L14.0339 6.18972ZM110.3 5.2328L112.873 6.77656L115.6 2.2328H110.3V5.2328ZM44.2571 115.278V118.278H45.9554L46.8294 116.822L44.2571 115.278ZM29.3853 115.278L26.813 113.734L24.0861 118.278H29.3853V115.278ZM95.4286 5.2328V2.2328H93.7303L92.8563 3.68903L95.4286 5.2328ZM24.1083 17.6727L22.3676 15.2293L22.3244 15.2601L22.2822 15.2924L24.1083 17.6727ZM21.2299 23.5736L24.1756 24.1416L24.1776 24.1315L24.1795 24.1213L21.2299 23.5736ZM21.2299 48.2939L18.2803 48.8416L21.2299 48.2939ZM24.1083 54.1949L22.2822 56.5751L22.3826 56.6521L22.4891 56.7204L24.1083 54.1949ZM36.2615 54.1949L37.9661 56.6636L37.9842 56.651L38.0022 56.6383L36.2615 54.1949ZM39.2998 48.2939L36.3716 47.6414L36.36 47.6936L36.3503 47.7462L39.2998 48.2939ZM39.2998 23.5736L36.3503 24.1213L36.3622 24.1859L36.3771 24.2499L39.2998 23.5736ZM36.2615 17.6727L34.4355 20.0529L34.4776 20.0852L34.5209 20.1161L36.2615 17.6727ZM125.652 54.8328L124.228 57.4735L124.27 57.4962L124.313 57.5175L125.652 54.8328ZM134.287 65.0399L131.461 66.0473L131.471 66.075L131.482 66.1025L134.287 65.0399ZM134.287 103.795L131.474 102.752L131.468 102.77L131.461 102.787L134.287 103.795ZM125.652 114.002L124.313 111.317L124.299 111.324L124.284 111.332L125.652 114.002ZM93.5097 114.002L94.8772 111.332L93.5097 114.002ZM84.8745 103.795L82.0418 104.783L82.0549 104.82L82.069 104.858L84.8745 103.795ZM84.8745 65.0399L82.069 63.9772L82.0586 64.0047L82.0487 64.0325L84.8745 65.0399ZM93.5097 54.8328L94.8772 57.503L94.9054 57.4885L94.9333 57.4735L93.5097 54.8328ZM103.424 66.1563L101.684 63.7129L101.64 63.7437L101.598 63.776L103.424 66.1563ZM100.546 72.0572L103.492 72.6252L103.494 72.6151L103.495 72.6049L100.546 72.0572ZM103.424 102.678L101.598 105.059L101.699 105.136L101.805 105.204L103.424 102.678ZM115.577 102.678L117.282 105.147L117.3 105.135L117.318 105.122L115.577 102.678ZM118.616 96.7775L115.688 96.125L115.676 96.1772L115.666 96.2298L118.616 96.7775ZM118.616 72.0572L115.666 72.6049L115.678 72.6695L115.693 72.7335L118.616 72.0572ZM115.577 66.1563L113.751 68.5365L113.794 68.5688L113.837 68.5997L115.577 66.1563ZM30.1849 6C36.7485 6 41.5753 7.03141 44.9123 8.83042L47.7595 3.54901C43.2076 1.09507 37.2671 0 30.1849 0V6ZM44.9416 8.846C48.2498 10.5825 50.6625 13.4044 52.1453 17.5637L57.7969 15.5489C55.8683 10.1391 52.5242 6.04986 47.7303 3.53343L44.9416 8.846ZM52.1737 17.64C53.7941 21.8229 54.6896 27.8334 54.6896 35.854H60.6896C60.6896 27.5008 59.7728 20.6461 57.7686 15.4726L52.1737 17.64ZM54.6896 35.854C54.6896 43.7574 53.7968 49.7828 52.1656 54.0891L57.7766 56.2144C59.7701 50.9517 60.6896 44.1119 60.6896 35.854H54.6896ZM52.1453 54.1444C50.6625 58.3037 48.2498 61.1255 44.9416 62.862L47.7303 68.1746C52.5242 65.6582 55.8683 61.569 57.7969 56.1592L52.1453 54.1444ZM44.9684 62.8482C41.6147 64.5657 36.7652 65.5486 30.1849 65.5486V71.5486C37.2504 71.5486 43.1682 70.5112 47.7035 68.1885L44.9684 62.8482ZM30.1849 65.5486C23.7267 65.5486 18.8558 64.5706 15.3727 62.8336L12.6951 68.203C17.3141 70.5064 23.2106 71.5486 30.1849 71.5486V65.5486ZM15.4575 62.8776C12.2542 61.1507 9.87653 58.3299 8.38438 54.1444L2.73278 56.1592C4.65206 61.5428 7.92456 65.633 12.6103 68.159L15.4575 62.8776ZM8.38438 54.1444C6.84153 49.8167 6 43.7695 6 35.854H0C0 44.0997 0.864193 50.9178 2.73278 56.1592L8.38438 54.1444ZM6 35.854C6 27.8218 6.84396 21.7888 8.37708 17.5839L2.74008 15.5286C0.861761 20.6803 0 27.5124 0 35.854H6ZM8.38438 17.5637C9.87653 13.3782 12.2542 10.5573 15.4575 8.83042L12.6103 3.54901C7.92456 6.07508 4.65206 10.1653 2.73278 15.5489L8.38438 17.5637ZM15.4282 8.846C18.895 7.02622 23.7438 6 30.1849 6V0C23.1935 0 17.2749 1.10026 12.6395 3.53343L15.4282 8.846ZM107.728 3.68903L41.6848 113.734L46.8294 116.822L112.873 6.77656L107.728 3.68903ZM44.2571 112.278H29.3853V118.278H44.2571V112.278ZM31.9577 116.822L98.001 6.77656L92.8563 3.68903L26.813 113.734L31.9577 116.822ZM95.4286 8.2328H110.3V2.2328H95.4286V8.2328ZM30.1849 13.0778C27.2424 13.0778 24.534 13.686 22.3676 15.2293L25.8489 20.1161C26.6675 19.5329 28.0102 19.0778 30.1849 19.0778V13.0778ZM22.2822 15.2924C20.0229 17.0258 18.8641 19.8817 18.2803 23.026L24.1795 24.1213C24.6617 21.5241 25.4219 20.446 25.9343 20.0529L22.2822 15.2924ZM18.2841 23.0056C17.6957 26.0576 17.4303 30.3815 17.4303 35.854H23.4303C23.4303 30.4815 23.698 26.6185 24.1756 24.1416L18.2841 23.0056ZM17.4303 35.854C17.4303 41.3327 17.6965 45.6975 18.2803 48.8416L24.1795 47.7462C23.6972 45.1488 23.4303 41.2203 23.4303 35.854H17.4303ZM18.2803 48.8416C18.8641 51.9858 20.0229 54.8418 22.2822 56.5751L25.9343 51.8146C25.4219 51.4215 24.6617 50.3435 24.1795 47.7462L18.2803 48.8416ZM22.4891 56.7204C24.6342 58.0957 27.2936 58.6302 30.1849 58.6302V52.6302C27.959 52.6302 26.5674 52.2079 25.7275 51.6694L22.4891 56.7204ZM30.1849 58.6302C33.1321 58.6302 35.8645 58.1146 37.9661 56.6636L34.557 51.7262C33.8867 52.1889 32.5681 52.6302 30.1849 52.6302V58.6302ZM38.0022 56.6383C40.4148 54.9195 41.6552 52.0419 42.2494 48.8416L36.3503 47.7462C35.8784 50.2874 35.0933 51.3437 34.5209 51.7515L38.0022 56.6383ZM42.228 48.9463C42.9397 45.7522 43.2593 41.3452 43.2593 35.854H37.2593C37.2593 41.2079 36.9392 45.0941 36.3716 47.6414L42.228 48.9463ZM43.2593 35.854C43.2593 30.3702 42.9409 26.0017 42.2226 22.8973L36.3771 24.2499C36.938 26.6744 37.2593 30.4929 37.2593 35.854H43.2593ZM42.2494 23.026C41.6552 19.8257 40.4148 16.948 38.0022 15.2293L34.5209 20.1161C35.0933 20.5238 35.8784 21.5801 36.3503 24.1213L42.2494 23.026ZM38.0876 15.2924C35.9662 13.6649 33.1817 13.0778 30.1849 13.0778V19.0778C32.5184 19.0778 33.7851 19.554 34.4355 20.0529L38.0876 15.2924ZM109.661 54.6431C116.108 54.6431 120.886 55.6715 124.228 57.4735L127.075 52.1921C122.529 49.7411 116.646 48.6431 109.661 48.6431V54.6431ZM124.313 57.5175C127.584 59.1484 129.981 61.8962 131.461 66.0473L137.113 64.0325C135.181 58.6145 131.822 54.5575 126.991 52.1481L124.313 57.5175ZM131.482 66.1025C133.113 70.4089 134.006 76.4343 134.006 84.3376H140.006C140.006 76.0798 139.086 69.24 137.093 63.9772L131.482 66.1025ZM134.006 84.3376C134.006 92.2362 133.114 98.3265 131.474 102.752L137.1 104.837C139.085 99.4815 140.006 92.6002 140.006 84.3376H134.006ZM131.461 102.787C129.981 106.939 127.584 109.686 124.313 111.317L126.991 116.687C131.822 114.277 135.181 110.22 137.113 104.802L131.461 102.787ZM124.284 111.332C120.925 113.052 116.125 114.032 109.661 114.032V120.032C116.629 120.032 122.489 118.992 127.019 116.672L124.284 111.332ZM109.661 114.032C103.08 114.032 98.2309 113.049 94.8772 111.332L92.1422 116.672C96.6775 118.995 102.595 120.032 109.661 120.032V114.032ZM94.8772 111.332C91.6964 109.703 89.2723 106.936 87.68 102.732L82.069 104.858C84.1014 110.223 87.4341 114.261 92.1422 116.672L94.8772 111.332ZM87.7072 102.807C86.1563 98.36 85.3159 92.2485 85.3159 84.3376H79.3159C79.3159 92.5879 80.1813 99.448 82.0418 104.783L87.7072 102.807ZM85.3159 84.3376C85.3159 76.4221 86.1575 70.375 87.7003 66.0473L82.0487 64.0325C80.1801 69.2739 79.3159 76.0919 79.3159 84.3376H85.3159ZM87.68 66.1025C89.2723 61.8989 91.6964 59.1321 94.8772 57.503L92.1422 52.1626C87.4341 54.5738 84.1014 58.6117 82.069 63.9772L87.68 66.1025ZM94.9333 57.4735C98.2704 55.6745 103.097 54.6431 109.661 54.6431V48.6431C102.579 48.6431 96.638 49.7382 92.0861 52.1921L94.9333 57.4735ZM109.501 61.5614C106.558 61.5614 103.85 62.1696 101.684 63.7129L105.165 68.5997C105.983 68.0165 107.326 67.5614 109.501 67.5614V61.5614ZM101.598 63.776C99.3388 65.5094 98.18 68.3653 97.5962 71.5096L103.495 72.6049C103.978 70.0077 104.738 68.9296 105.25 68.5365L101.598 63.776ZM97.6001 71.4892C97.0116 74.5412 96.7463 78.8651 96.7463 84.3376H102.746C102.746 78.9651 103.014 75.1021 103.492 72.6252L97.6001 71.4892ZM96.7463 84.3376C96.7463 89.8163 97.0124 94.1811 97.5962 97.3252L103.495 96.2298C103.013 93.6324 102.746 89.7039 102.746 84.3376H96.7463ZM97.5962 97.3252C98.18 100.469 99.3388 103.325 101.598 105.059L105.25 100.298C104.738 99.9051 103.978 98.8271 103.495 96.2298L97.5962 97.3252ZM101.805 105.204C103.95 106.579 106.61 107.114 109.501 107.114V101.114C107.275 101.114 105.883 100.691 105.043 100.153L101.805 105.204ZM109.501 107.114C112.448 107.114 115.18 106.598 117.282 105.147L113.873 100.21C113.203 100.673 111.884 101.114 109.501 101.114V107.114ZM117.318 105.122C119.731 103.403 120.971 100.525 121.565 97.3252L115.666 96.2298C115.194 98.771 114.409 99.8273 113.837 100.235L117.318 105.122ZM121.544 97.4299C122.256 94.2358 122.575 89.8288 122.575 84.3376H116.575C116.575 89.6915 116.255 93.5777 115.688 96.125L121.544 97.4299ZM122.575 84.3376C122.575 78.8538 122.257 74.4853 121.539 71.3809L115.693 72.7335C116.254 75.158 116.575 78.9765 116.575 84.3376H122.575ZM121.565 71.5096C120.971 68.3093 119.731 65.4316 117.318 63.7129L113.837 68.5997C114.409 69.0074 115.194 70.0637 115.666 72.6049L121.565 71.5096ZM117.404 63.776C115.282 62.1485 112.498 61.5614 109.501 61.5614V67.5614C111.834 67.5614 113.101 68.0376 113.751 68.5365L117.404 63.776Z" fill="#070C11" mask="url(#path-2-outside-1_21_981)"/>
</svg>
